# xmcd
#
# Track frame offsets: 
#        150
#        11330
#        30408
#        43336
#        61160
#        81360
#        96015
#        107301
#        119999
#        137051
#        146615
#        164138
#
# Disc length: 2398 seconds
#
# Revision: 0
# Processed by: cddbd v1.5.2PL0 Copyright (c) Steve Scherf et al.
# Submitted via: ExactAudioCopy v0.99pb3
#
DISCID=a3095c0c
DTITLE=Stayton Bonner - Border Radio
DYEAR=2002
DGENRE=Alt Country
TTITLE0=Border Radio
TTITLE1=Let It Roll
TTITLE2=Like They Used To Do
TTITLE3=Pray Tell
TTITLE4=Ballad Of The Kid
TTITLE5=Billy Ray (Mullet Man)
TTITLE6=Indian Cove
TTITLE7=Tabasco
TTITLE8=Still Love
TTITLE9=Down The Line
TTITLE10=Snake River
TTITLE11=Shiner
EXTD=
EXTT0=
EXTT1=
EXTT2=
EXTT3=
EXTT4=
EXTT5=
EXTT6=
EXTT7=
EXTT8=
EXTT9=
EXTT10=
EXTT11=
PLAYORDER=
